Coordinates
version=1
nRows=16
nColumns=36
inDegrees=yes

Units are S.I. units (second, meters, Newtons, ...)
If the header above contains a line with 'inDegrees', this indicates whether rotational values are in degrees (yes) or radians (no).

endheader
time	pelvis_tilt	pelvis_list	pelvis_rotation	pelvis_tx	pelvis_ty	pelvis_tz	hip_flexion_r	hip_adduction_r	hip_rotation_r	knee_angle_r	knee_angle_r_beta	ankle_angle_r	subtalar_angle_r	mtp_angle_r	hip_flexion_l	hip_adduction_l	hip_rotation_l	knee_angle_l	knee_angle_l_beta	ankle_angle_l	subtalar_angle_l	mtp_angle_l	lumbar_extension	lumbar_bending	lumbar_rotation	arm_flex_r	arm_add_r	arm_rot_r	elbow_flex_r	pro_sup_r	arm_flex_l	arm_add_l	arm_rot_l	elbow_flex_l	pro_sup_l
      0.00000000	     -1.04780441	     -3.78540824	     -0.75562158	     -0.15700358	      1.15569150	      0.06073703	      1.34396803	      5.56685030	     -0.90845566	      2.09130536	      0.03650016	      9.34530582	      5.20557006	     -6.93195256	     -0.83603627	     -4.27931264	     -1.66585792	      2.53032486	      0.04416250	     13.64805381	      5.75654635	     -6.93195256	      0.09937800	      4.50691699	     -2.48081605	     14.49076378	      0.44320142	     21.08567477	     86.80922407	     94.53787868	     11.69031784	     -4.86219416	     28.91514420	     90.97292455	     90.35499344
      0.01666670	     -3.45507492	     -3.03820993	     -0.01815479	     -0.15559669	      1.14994222	      0.05996544	      3.79255992	      5.00757255	     -0.41387522	      1.74541957	      0.03046332	      9.47648623	      5.93287452	     -7.10738643	      1.51256517	     -2.89280038	     -0.35305007	      1.57456229	      0.02748130	     12.91122954	      6.84490611	     -7.10738643	      3.48255298	      3.29788181	     -2.24664682	     12.60377264	      0.67341118	     18.02370139	     86.75689459	     88.36773660	     11.79714195	     -5.44954796	     30.84294419	     92.01643794	     85.12108544
      0.03333330	     -4.77969044	     -2.08360119	      0.19671642	     -0.15740163	      1.15018725	      0.05966104	      4.77214860	      4.13907732	     -0.65920557	      1.09644915	      0.01913665	      8.83306949	      6.77055479	     -7.11709379	      2.84751321	     -1.68367801	     -1.62210575	      1.09763697	      0.01915738	     12.20180796	      8.24122442	     -7.11709379	      5.27664624	      1.70989533	     -1.45556945	     11.21951080	      0.30171514	     16.94056004	     86.91771288	     88.17976875	     12.53468347	     -5.80588806	     31.80122396	     90.76846694	     84.88400548
      0.05000000	     -4.98512746	     -1.48783943	      0.22600229	     -0.15705129	      1.15211921	      0.06015047	      4.84347288	      3.46296183	     -0.69017603	      0.72223546	      0.01260539	      8.93887243	      7.51451805	     -7.35213511	      2.92164041	     -0.92230272	     -2.12853909	      0.65122154	      0.01136596	     11.77679945	      9.45407739	     -7.35213511	      5.47924805	      0.61673619	      0.97347110	      8.96462633	     -0.03823312	     13.78033699	     88.43579061	     86.35154986	     14.65656922	     -5.52927110	     34.98381634	     88.33472750	     79.10626905
      0.06666670	     -5.23314633	     -1.27484940	      0.12954636	     -0.15727794	      1.14844024	      0.06042146	      5.04442156	      3.26046382	     -0.28975649	      0.50916107	      0.00888654	      8.92637305	      7.00994159	     -7.35943919	      3.14848594	     -0.61141978	     -2.41880442	      0.48742980	      0.00850725	     11.57801338	     10.20418602	     -7.35943919	      5.75406164	      0.25613377	      0.95496954	      8.48324199	      0.19593355	     13.49232943	     88.56718871	     84.95753242	     14.41290869	     -5.83541775	     35.13720922	     88.76931990	     78.02041751
      0.08333330	     -5.28586183	     -1.18634723	      0.22852707	     -0.15881062	      1.14503593	      0.06014523	      5.01751245	      3.20191751	     -0.11837815	      0.43220466	      0.00754339	      9.24459484	      7.41135809	     -7.36998114	      3.23069255	     -0.47119492	     -2.30935147	      0.43287095	      0.00755502	     11.56293296	     10.54758556	     -7.36998114	      5.84485614	      0.02869955	      0.96169387	      8.58426386	      0.47770934	     12.77057445	     88.62291380	     84.13394720	     14.78759442	     -6.11532650	     35.87498216	     89.20458104	     77.36933366
      0.10000000	     -5.24002634	     -1.17485271	      0.30243836	     -0.15920510	      1.14520235	      0.06002940	      4.84735878	      3.21328125	      0.11747016	      0.39704473	      0.00692974	      9.25514847	      7.47051898	     -7.38023972	      3.18262683	     -0.47379913	     -2.17920081	      0.40388014	      0.00704904	     11.34375357	     10.47257848	     -7.38023972	      5.83691827	     -0.10687916	      0.83240146	      8.72835024	      0.72012516	     12.25708114	     88.68510994	     82.98642987	     15.32095871	     -6.39621929	     36.55005944	     89.11469579	     76.45264549
      0.11666670	     -5.20671978	     -1.14126271	      0.29419352	     -0.15932510	      1.14552284	      0.05989457	      4.75103845	      3.16830817	      0.42864111	      0.37596515	      0.00656183	      9.19989879	      7.29064691	     -7.39785541	      3.13216102	     -0.45709533	     -2.28403258	      0.39269075	      0.00685375	     11.33287673	     10.84048452	     -7.39785541	      5.80481296	     -0.19417318	      1.58313918	      8.25886121	      0.83492470	     10.91443539	     89.44373225	     82.42411018	     16.39101371	     -6.43431386	     38.20091143	     88.51954281	     75.15788643
      0.13333330	     -5.12477569	     -1.15403467	      0.28150476	     -0.16003040	      1.14596959	      0.05978068	      4.64927235	      3.15415945	      0.55473471	      0.35574019	      0.00620884	      9.16101015	      7.18183415	     -7.40743457	      3.07925270	     -0.48573607	     -2.13056778	      0.37902747	      0.00661528	     11.18083339	     10.76608131	     -7.40743457	      5.69944479	     -0.19048801	      1.38880435	      8.28591467	      1.06031148	     10.79327083	     89.34856348	     81.78259813	     16.73019234	     -6.55354878	     38.34229140	     88.19791931	     74.48379137
      0.15000000	     -5.06374611	     -1.20914961	      0.31069865	     -0.16005626	      1.14357970	      0.05987912	      4.55898812	      3.20690207	      0.64028692	      0.34033294	      0.00593993	      9.06676455	      7.16082218	     -7.42644462	      3.01702667	     -0.56665676	     -2.23958959	      0.37025297	      0.00646213	     11.27047600	     10.91226254	     -7.42644462	      5.61633181	     -0.16188125	      1.43212214	      8.23054225	      1.19067097	     10.59514506	     89.56646840	     80.43238181	     17.04749272	     -6.65346733	     38.81900427	     88.22942684	     72.87606713
      0.16666670	     -5.00255433	     -1.24694297	      0.39351790	     -0.16086619	      1.14456868	      0.05995181	      4.49113074	      3.21829522	      0.62434251	      0.33096566	      0.00577644	      8.96025124	      7.17087674	     -7.43762623	      2.97552072	     -0.62007501	     -2.12507886	      0.35734740	      0.00623689	     11.17221144	     10.59923239	     -7.43762623	      5.50130907	     -0.13213093	      1.33037781	      8.17706508	      1.36581800	     10.53654810	     89.60334948	     79.52025557	     17.27619054	     -6.68278411	     39.00392682	     88.05192722	     71.97423200
      0.18333330	     -4.98228731	     -1.27672216	      0.40283877	     -0.16022265	      1.14601433	      0.05928787	      4.48863004	      3.20931969	      0.56806672	      0.32179966	      0.00561646	      8.94114147	      7.41811905	     -7.45144015	      2.95261336	     -0.67128242	     -2.34763172	      0.34537636	      0.00602795	     11.11656266	     10.98887624	     -7.45144015	      5.38767877	     -0.10269340	      1.41000168	      7.82089605	      1.45923287	     10.24894966	     89.97627514	     79.51244690	     17.53727882	     -6.67447870	     39.34017968	     87.83716009	     70.81064423
      0.20000000	     -4.94144014	     -1.30623066	      0.45336344	     -0.16085731	      1.14805410	      0.05954746	      4.51343724	      3.21490496	      0.60288706	      0.30608983	      0.00534228	      8.76635783	      7.28894629	     -7.45680543	      2.92735345	     -0.70519088	     -2.03560951	      0.32649652	      0.00569844	     10.82928698	     10.74529759	     -7.45680543	      5.31863089	     -0.06380724	      1.24577689	      7.80942516	      1.56114278	     10.18167845	     89.67612366	     78.73373609	     17.64718932	     -6.68268186	     39.33360409	     87.49906218	     70.15026182
      0.21666670	     -4.87687856	     -1.35789358	      0.38773933	     -0.16153395	      1.14619868	      0.05970365	      4.57581921	      3.21673150	      0.53272958	      0.29912026	      0.00522063	      8.86068691	      7.20566507	     -7.46360048	      2.85449732	     -0.76052617	     -2.21704180	      0.31082664	      0.00542495	     10.87716855	     11.14489511	     -7.46360048	      5.19606408	      0.04668756	      1.24039262	      7.82183590	      1.56029630	     10.45356972	     89.72840218	     77.51880257	     17.76996637	     -6.73359916	     39.41494330	     87.38823563	     69.19245235
      0.23333330	     -4.84731423	     -1.40895335	      0.38981023	     -0.16116678	      1.14563565	      0.06038250	      4.65513371	      3.24149074	      0.32994613	      0.28968019	      0.00505587	      8.92486605	      7.34079458	     -7.46798781	      2.81982057	     -0.84381760	     -2.21709760	      0.30111819	      0.00525550	     10.87565559	     11.34904211	     -7.46798781	      5.13114676	      0.11982440	      1.22842722	      7.83244728	      1.48571130	     10.71845044	     89.94198676	     76.90923411	     17.89168052	     -6.77735726	     39.45311970	     87.30691477	     68.50185888
      0.25000000	     -4.71643083	     -1.47081424	      0.37612950	     -0.16270981	      1.14578056	      0.05996941	      4.60529359	      3.26483890	      0.09612082	      0.28593603	      0.00499053	      8.92428082	      7.31042939	     -7.47576343	      2.71138584	     -0.92144596	     -2.14840084	      0.29218586	      0.00509961	     10.85816718	     11.41764052	     -7.47576343	      4.88987520	      0.20192043	      1.15173563	      7.90348175	      1.35814096	     11.09246360	     90.30192224	     75.73583718	     18.07983004	     -6.78610069	     39.44833341	     87.24669359	     67.54225807
